<svg width="20" height="20" viewBox="0 0 20 20" fill="none" xmlns="http://www.w3.org/2000/svg">
<path d="M16.2475 6.65752L10 12.7475L3.7525 6.65752C3.64088 6.54849 3.49103 6.48746 3.335 6.48746C3.17897 6.48746 3.02912 6.54849 2.9175 6.65752C2.86345 6.71048 2.82052 6.77368 2.7912 6.84344C2.76189 6.9132 2.74679 6.98811 2.74679 7.06377C2.74679 7.13944 2.76189 7.21434 2.7912 7.2841C2.82052 7.35386 2.86345 7.41707 2.9175 7.47002L9.56375 13.95C9.68047 14.0638 9.83701 14.1275 10 14.1275C10.163 14.1275 10.3195 14.0638 10.4362 13.95L17.0825 7.47127C17.1369 7.41828 17.1802 7.35491 17.2097 7.28493C17.2393 7.21494 17.2545 7.13974 17.2545 7.06377C17.2545 6.9878 17.2393 6.91261 17.2097 6.84262C17.1802 6.77263 17.1369 6.70927 17.0825 6.65627C16.9709 6.54724 16.821 6.48621 16.665 6.48621C16.509 6.48621 16.3591 6.54724 16.2475 6.65627V6.65752Z" fill="#FDFDFD"/>
</svg>
